<?xml version="1.0" encoding="utf-8"?>
<svg width="186px" height="197px" viewBox="0 0 186 197" version="1.1" xmlns:xlink="http://www.w3.org/1999/xlink" xmlns="http://www.w3.org/2000/svg">
  <defs>
    <path d="M3.999 0L77.001 0Q77.1975 0 77.393 0.0192563Q77.5885 0.0385126 77.7812 0.0768396Q77.9738 0.115167 78.1618 0.172196Q78.3499 0.229224 78.5313 0.304406Q78.7128 0.379587 78.8861 0.472197Q79.0594 0.564807 79.2227 0.673953Q79.3861 0.783099 79.5379 0.907731Q79.6898 1.03236 79.8287 1.17128Q79.9676 1.3102 80.0923 1.46206Q80.2169 1.61393 80.326 1.77727Q80.4352 1.94062 80.5278 2.11388Q80.6204 2.28715 80.6956 2.46865Q80.7708 2.65015 80.8278 2.83815Q80.8848 3.02615 80.9231 3.21883Q80.9615 3.41152 80.9807 3.60703Q81 3.80254 81 3.999L81 77.001Q81 77.1975 80.9807 77.393Q80.9615 77.5885 80.9231 77.7812Q80.8848 77.9738 80.8278 78.1618Q80.7708 78.3499 80.6956 78.5313Q80.6204 78.7128 80.5278 78.8861Q80.4352 79.0594 80.326 79.2227Q80.2169 79.3861 80.0923 79.5379Q79.9676 79.6898 79.8287 79.8287Q79.6898 79.9676 79.5379 80.0923Q79.3861 80.2169 79.2227 80.326Q79.0594 80.4352 78.8861 80.5278Q78.7128 80.6204 78.5313 80.6956Q78.3498 80.7708 78.1618 80.8278Q77.9738 80.8848 77.7812 80.9231Q77.5885 80.9615 77.393 80.9807Q77.1975 81 77.001 81L3.999 81Q3.80254 81 3.60703 80.9807Q3.41152 80.9615 3.21883 80.9231Q3.02615 80.8848 2.83815 80.8278Q2.65015 80.7708 2.46865 80.6956Q2.28715 80.6204 2.11388 80.5278Q1.94062 80.4352 1.77727 80.326Q1.61393 80.2169 1.46206 80.0923Q1.3102 79.9676 1.17128 79.8287Q1.03236 79.6898 0.907731 79.5379Q0.783099 79.3861 0.673953 79.2227Q0.564807 79.0594 0.472197 78.8861Q0.379587 78.7128 0.304406 78.5313Q0.229224 78.3498 0.172196 78.1618Q0.115167 77.9738 0.0768396 77.7812Q0.0385126 77.5885 0.0192563 77.393Q0 77.1975 0 77.001L0 3.999Q0 3.80254 0.0192563 3.60703Q0.0385126 3.41152 0.0768396 3.21883Q0.115167 3.02615 0.172196 2.83815Q0.229224 2.65015 0.304406 2.46865Q0.379587 2.28715 0.472197 2.11388Q0.564807 1.94062 0.673953 1.77727Q0.783099 1.61393 0.907731 1.46206Q1.03236 1.3102 1.17128 1.17128Q1.3102 1.03236 1.46206 0.907731Q1.61393 0.783099 1.77727 0.673953Q1.94062 0.564807 2.11388 0.472197Q2.28715 0.379587 2.46865 0.304406Q2.65015 0.229224 2.83815 0.172196Q3.02615 0.115167 3.21883 0.0768396Q3.41152 0.0385126 3.60703 0.0192563Q3.80254 0 3.999 0Z" id="path_1" />
  </defs>
  <g id="PartlyCloudyNight" transform="translate(1 1)">
    <g id="bg">
      <g id="Rectangle-68">
        <use xlink:href="#path_1" fill="none" stroke="#FFFFFF" stroke-opacity="0.011764706" stroke-width="2" />
      </g>
    </g>
    <g id="icon" transform="translate(14 40)">
      <g id="Moon" transform="translate(23 0)">
        <path d="M142 123.224C136.574 124.391 130.942 125.005 125.166 125.005C81.2187 125.005 45.5922 89.4349 45.5922 45.5569C45.5922 28.6079 50.908 12.8985 59.9659 1.07952e-06C25.543 8.41059 0 39.4144 0 76.3747C0 119.798 35.2576 155 78.7501 155C104.661 155 127.648 142.506 142 123.224Z" id="Oval-94" fill="#000000" fill-opacity="0.6" fill-rule="evenodd" stroke="none" />
      </g>
      <g id="star" transform="translate(94 4)">
        <path d="M11.7523 15.7938C11.3203 15.1775 10.7612 14.2655 9.0713 11.8997C9.1065 11.9349 0.981716 1.4972 0.981716 1.4972C-0.0178713 0.212921 0.235087 -0.00119844 1.536 1.01062C1.536 1.01062 11.8997 9.0713 11.8997 9.0713C14.2239 10.7314 15.1594 11.3146 15.7839 11.7523C16.4001 11.3203 17.3121 10.7612 19.6779 9.0713C19.6427 9.1065 30.0804 0.981716 30.0804 0.981716C31.3647 -0.0178713 31.5788 0.235087 30.567 1.536C30.567 1.536 22.5063 11.8997 22.5063 11.8997C20.8462 14.2239 20.263 15.1594 19.8253 15.7839C20.2574 16.4001 20.8165 17.3121 22.5063 19.6779C22.4711 19.6427 30.5959 30.0804 30.5959 30.0804C31.5955 31.3647 31.3425 31.5788 30.0416 30.567C30.0416 30.567 19.6779 22.5063 19.6779 22.5063C17.3537 20.8462 16.4183 20.263 15.7938 19.8253C15.1775 20.2574 14.2655 20.8165 11.8997 22.5063C11.9349 22.4711 1.4972 30.5959 1.4972 30.5959C0.212921 31.5955 -0.00119844 31.3425 1.01062 30.0416C1.01062 30.0416 9.0713 19.6779 9.0713 19.6779C10.7314 17.3537 11.3146 16.4183 11.7523 15.7938L11.7523 15.7938Z" id="Rectangle-71-Copy-2" fill="#FFFFFF" fill-rule="evenodd" stroke="none" />
      </g>
      <g id="star-mini" transform="translate(156 67)">
        <path d="M4.02803 6.00707C4.04416 6.02319 0.327156 1.24805 0.327156 1.24805C-0.133716 0.655913 -0.0201939 0.554774 0.575806 1.01833C0.575806 1.01833 5.32385 4.71125 5.32385 4.71125C6.38864 5.47182 6.81721 5.73901 7.10333 5.93953C7.38566 5.74159 7.80346 5.48545 8.88734 4.71125C8.87121 4.72738 13.6464 1.01037 13.6464 1.01037C14.2385 0.549503 14.3396 0.663025 13.8761 1.25903C13.8761 1.25903 10.1832 6.00706 10.1832 6.00706C9.42259 7.07186 9.15539 7.50043 8.95488 7.78655C9.15282 8.06888 9.40896 8.48668 10.1832 9.57056C10.167 9.55443 13.884 14.3296 13.884 14.3296C14.3449 14.9217 14.2314 15.0229 13.6354 14.5593C13.6354 14.5593 8.88734 10.8664 8.88734 10.8664C7.82254 10.1058 7.39397 9.83861 7.10786 9.6381C6.82553 9.83604 6.40773 10.0922 5.32385 10.8664C5.33997 10.8502 0.564828 14.5673 0.564828 14.5673C-0.0273066 15.0281 -0.128446 14.9146 0.33511 14.3186C0.33511 14.3186 4.02803 9.57056 4.02803 9.57056C4.7886 8.50576 5.05579 8.07719 5.25631 7.79108C5.05837 7.50875 4.80223 7.09094 4.02803 6.00707Z" id="Rectangle-71-Copy-2" fill="#FFFFFF" fill-rule="evenodd" stroke="none" />
      </g>
      <g id="cloud--mini" transform="translate(0 98)">
        <path d="M43.5671 43L15.6 43C6.98436 43 0 36.2359 0 27.8919C0 19.5479 6.98436 12.7838 15.6 12.7838C18.1999 12.7838 20.6513 13.3998 22.807 14.4892C25.8087 6.05735 34.0739 0 43.8 0C56.0607 0 66 9.62588 66 21.5C66 21.7434 65.9958 21.9858 65.9875 22.2272C69.5666 24.0894 72 27.7492 72 31.9595C72 38.057 66.896 43 60.6 43L43.8 43C43.7883 43 43.7766 43 43.7649 43C43.765 43 43.765 43 43.765 43L43.5671 43L43.8 43L43.5671 43Z" id="Oval-4-Copy-6" fill="#FFFFFF" fill-rule="evenodd" stroke="none" />
      </g>
      <g id="cloud--mini" transform="translate(14 25)">
        <path d="M43.5671 43L15.6 43C6.98436 43 0 36.2359 0 27.8919C0 19.5479 6.98436 12.7838 15.6 12.7838C18.1999 12.7838 20.6513 13.3998 22.807 14.4892C25.8087 6.05735 34.0739 0 43.8 0C56.0607 0 66 9.62588 66 21.5C66 21.7434 65.9958 21.9858 65.9875 22.2272C69.5666 24.0894 72 27.7492 72 31.9595C72 38.057 66.896 43 60.6 43L43.8 43C43.7883 43 43.7766 43 43.7649 43C43.765 43 43.765 43 43.765 43L43.5671 43L43.8 43L43.5671 43Z" id="Oval-4-Copy-6" fill="#FFFFFF" fill-rule="evenodd" stroke="none" />
      </g>
    </g>
  </g>
</svg>