<?xml version="1.0" encoding="utf-8"?>
<svg width="202px" height="157px" viewBox="0 0 202 157" version="1.1" xmlns:xlink="http://www.w3.org/1999/xlink" xmlns="http://www.w3.org/2000/svg">
  <defs>
    <path d="M3.999 0L77.001 0Q77.1975 0 77.393 0.0192563Q77.5885 0.0385126 77.7812 0.0768396Q77.9738 0.115167 78.1618 0.172196Q78.3499 0.229224 78.5313 0.304406Q78.7128 0.379587 78.8861 0.472197Q79.0594 0.564807 79.2227 0.673953Q79.3861 0.783099 79.5379 0.907731Q79.6898 1.03236 79.8287 1.17128Q79.9676 1.3102 80.0923 1.46206Q80.2169 1.61393 80.326 1.77727Q80.4352 1.94062 80.5278 2.11388Q80.6204 2.28715 80.6956 2.46865Q80.7708 2.65015 80.8278 2.83815Q80.8848 3.02615 80.9231 3.21883Q80.9615 3.41152 80.9807 3.60703Q81 3.80254 81 3.999L81 77.001Q81 77.1975 80.9807 77.393Q80.9615 77.5885 80.9231 77.7812Q80.8848 77.9738 80.8278 78.1618Q80.7708 78.3499 80.6956 78.5313Q80.6204 78.7128 80.5278 78.8861Q80.4352 79.0594 80.326 79.2227Q80.2169 79.3861 80.0923 79.5379Q79.9676 79.6898 79.8287 79.8287Q79.6898 79.9676 79.5379 80.0923Q79.3861 80.2169 79.2227 80.326Q79.0594 80.4352 78.8861 80.5278Q78.7128 80.6204 78.5313 80.6956Q78.3498 80.7708 78.1618 80.8278Q77.9738 80.8848 77.7812 80.9231Q77.5885 80.9615 77.393 80.9807Q77.1975 81 77.001 81L3.999 81Q3.80254 81 3.60703 80.9807Q3.41152 80.9615 3.21883 80.9231Q3.02615 80.8848 2.83815 80.8278Q2.65015 80.7708 2.46865 80.6956Q2.28715 80.6204 2.11388 80.5278Q1.94062 80.4352 1.77727 80.326Q1.61393 80.2169 1.46206 80.0923Q1.3102 79.9676 1.17128 79.8287Q1.03236 79.6898 0.907731 79.5379Q0.783099 79.3861 0.673953 79.2227Q0.564807 79.0594 0.472197 78.8861Q0.379587 78.7128 0.304406 78.5313Q0.229224 78.3498 0.172196 78.1618Q0.115167 77.9738 0.0768396 77.7812Q0.0385126 77.5885 0.0192563 77.393Q0 77.1975 0 77.001L0 3.999Q0 3.80254 0.0192563 3.60703Q0.0385126 3.41152 0.0768396 3.21883Q0.115167 3.02615 0.172196 2.83815Q0.229224 2.65015 0.304406 2.46865Q0.379587 2.28715 0.472197 2.11388Q0.564807 1.94062 0.673953 1.77727Q0.783099 1.61393 0.907731 1.46206Q1.03236 1.3102 1.17128 1.17128Q1.3102 1.03236 1.46206 0.907731Q1.61393 0.783099 1.77727 0.673953Q1.94062 0.564807 2.11388 0.472197Q2.28715 0.379587 2.46865 0.304406Q2.65015 0.229224 2.83815 0.172196Q3.02615 0.115167 3.21883 0.0768396Q3.41152 0.0385126 3.60703 0.0192563Q3.80254 0 3.999 0Z" id="path_1" />
  </defs>
  <g id="Overcast" transform="translate(1 1)">
    <g id="bg">
      <g id="Rectangle-68">
        <use xlink:href="#path_1" fill="none" stroke="#FFFFFF" stroke-opacity="0.011764706" stroke-width="2" />
      </g>
    </g>
    <g id="icon" transform="translate(34 52)">
      <g id="cloud-grey">
        <path d="M101.051 104L36.1833 104C16.1998 104 0 87.6402 0 67.4595C0 47.2787 16.1998 30.9189 36.1833 30.9189C42.2137 30.9189 47.8996 32.4087 52.8996 35.0437C59.8619 14.6503 79.0326 0 101.592 0C130.03 0 153.083 23.2812 153.083 52C153.083 52.5886 153.074 53.1749 153.054 53.7588C161.356 58.2627 167 67.1143 167 77.2973C167 92.0448 155.162 104 140.558 104L101.592 104C101.51 104 101.051 104 101.051 104L101.592 104L101.051 104Z" id="Oval-4-Copy-2" fill="#000000" fill-opacity="0.6" fill-rule="evenodd" stroke="none" />
      </g>
    </g>
  </g>
</svg>