<?xml version="1.0" encoding="utf-8"?>
<svg width="202px" height="234px" viewBox="0 0 202 234" version="1.1" xmlns:xlink="http://www.w3.org/1999/xlink" xmlns="http://www.w3.org/2000/svg">
  <defs>
    <path d="M3.999 0L77.001 0Q77.1975 0 77.393 0.0192563Q77.5885 0.0385126 77.7812 0.0768396Q77.9738 0.115167 78.1618 0.172196Q78.3499 0.229224 78.5313 0.304406Q78.7128 0.379587 78.8861 0.472197Q79.0594 0.564807 79.2227 0.673953Q79.3861 0.783099 79.5379 0.907731Q79.6898 1.03236 79.8287 1.17128Q79.9676 1.3102 80.0923 1.46206Q80.2169 1.61393 80.326 1.77727Q80.4352 1.94062 80.5278 2.11388Q80.6204 2.28715 80.6956 2.46865Q80.7708 2.65015 80.8278 2.83815Q80.8848 3.02615 80.9231 3.21883Q80.9615 3.41152 80.9807 3.60703Q81 3.80254 81 3.999L81 77.001Q81 77.1975 80.9807 77.393Q80.9615 77.5885 80.9231 77.7812Q80.8848 77.9738 80.8278 78.1618Q80.7708 78.3499 80.6956 78.5313Q80.6204 78.7128 80.5278 78.8861Q80.4352 79.0594 80.326 79.2227Q80.2169 79.3861 80.0923 79.5379Q79.9676 79.6898 79.8287 79.8287Q79.6898 79.9676 79.5379 80.0923Q79.3861 80.2169 79.2227 80.326Q79.0594 80.4352 78.8861 80.5278Q78.7128 80.6204 78.5313 80.6956Q78.3498 80.7708 78.1618 80.8278Q77.9738 80.8848 77.7812 80.9231Q77.5885 80.9615 77.393 80.9807Q77.1975 81 77.001 81L3.999 81Q3.80254 81 3.60703 80.9807Q3.41152 80.9615 3.21883 80.9231Q3.02615 80.8848 2.83815 80.8278Q2.65015 80.7708 2.46865 80.6956Q2.28715 80.6204 2.11388 80.5278Q1.94062 80.4352 1.77727 80.326Q1.61393 80.2169 1.46206 80.0923Q1.3102 79.9676 1.17128 79.8287Q1.03236 79.6898 0.907731 79.5379Q0.783099 79.3861 0.673953 79.2227Q0.564807 79.0594 0.472197 78.8861Q0.379587 78.7128 0.304406 78.5313Q0.229224 78.3498 0.172196 78.1618Q0.115167 77.9738 0.0768396 77.7812Q0.0385126 77.5885 0.0192563 77.393Q0 77.1975 0 77.001L0 3.999Q0 3.80254 0.0192563 3.60703Q0.0385126 3.41152 0.0768396 3.21883Q0.115167 3.02615 0.172196 2.83815Q0.229224 2.65015 0.304406 2.46865Q0.379587 2.28715 0.472197 2.11388Q0.564807 1.94062 0.673953 1.77727Q0.783099 1.61393 0.907731 1.46206Q1.03236 1.3102 1.17128 1.17128Q1.3102 1.03236 1.46206 0.907731Q1.61393 0.783099 1.77727 0.673953Q1.94062 0.564807 2.11388 0.472197Q2.28715 0.379587 2.46865 0.304406Q2.65015 0.229224 2.83815 0.172196Q3.02615 0.115167 3.21883 0.0768396Q3.41152 0.0385126 3.60703 0.0192563Q3.80254 0 3.999 0Z" id="path_1" />
    <path d="M52.5 105C81.4949 105 105 81.4949 105 52.5C105 23.5051 81.4949 0 52.5 0C23.5051 0 0 23.5051 0 52.5C0 81.4949 23.5051 105 52.5 105Z" id="path_2" />
    <path d="M52.5 99C78.1812 99 99 78.1812 99 52.5C99 26.8188 78.1812 6 52.5 6C26.8188 6 6 26.8188 6 52.5C6 78.1812 26.8188 99 52.5 99Z" id="path_3" />
    <clipPath id="clip_1">
      <use xlink:href="#path_2" />
    </clipPath>
    <clipPath id="clip_2">
      <use xlink:href="#path_3" />
    </clipPath>
  </defs>
  <g id="ModRainSwrsDay" transform="translate(1 1)">
    <g id="bg">
      <g id="Rectangle-68">
        <use xlink:href="#path_1" fill="none" stroke="#FFFFFF" stroke-opacity="0.011764706" stroke-width="2" />
      </g>
    </g>
    <g id="icon" transform="translate(10 10)">
      <g id="sun">
        <g id="Oval-1-Copy-2">
          <g clip-path="url(#clip_1)">
            <use xlink:href="#path_2" fill="none" stroke="#FFF308" stroke-opacity="0.2" stroke-width="6" />
          </g>
        </g>
        <g id="Oval-1-Copy">
          <g clip-path="url(#clip_2)">
            <use xlink:href="#path_3" fill="none" stroke="#FFF308" stroke-opacity="0.6" stroke-width="8" />
          </g>
        </g>
        <path d="M52.5 92C74.3152 92 92 74.3152 92 52.5C92 30.6848 74.3152 13 52.5 13C30.6848 13 13 30.6848 13 52.5C13 74.3152 30.6848 92 52.5 92Z" id="Oval-1" fill="#FFEC65" fill-rule="evenodd" stroke="none" />
      </g>
      <g id="cloud-200w" transform="translate(23 37)">
        <path d="M101.395 103.333L36.3063 103.333C16.2549 103.333 0 87.0784 0 67.027C0 46.9756 16.2549 30.7207 36.3063 30.7207C42.3572 30.7207 48.0623 32.201 53.0794 34.8191C60.0653 14.5564 79.3012 0 101.937 0C130.472 0 153.604 23.132 153.604 51.6667C153.604 52.2515 153.594 52.834 153.575 53.4142C161.904 57.8892 167.568 66.6841 167.568 76.8018C167.568 91.4548 155.689 103.333 141.036 103.333L101.937 103.333C101.855 103.333 101.395 103.333 101.395 103.333L101.937 103.333L101.395 103.333Z" id="Oval-4" fill="#FFFFFF" fill-rule="evenodd" stroke="none" />
      </g>
      <g id="raindrops-2" transform="translate(63 147)">
        <path d="M90.179 0.53768L90.181 0.538198Q90.4663 0.614647 90.7312 0.745288Q90.9961 0.875929 91.2304 1.05574Q91.4648 1.23556 91.6595 1.45763Q91.8543 1.67971 92.002 1.93551Q92.1497 2.19131 92.2446 2.47101Q92.3395 2.75071 92.3781 3.04356Q92.4166 3.33641 92.3973 3.63115Q92.378 3.9259 92.3016 4.21121L87.3835 22.5657Q87.3454 22.708 87.2935 22.8459Q87.2416 22.9838 87.1764 23.1159Q87.1112 23.2481 87.0334 23.3732Q86.9556 23.4983 86.8659 23.6152Q86.7762 23.7321 86.6755 23.8396Q86.5748 23.9472 86.464 24.0443Q86.3533 24.1414 86.2335 24.2273Q86.1138 24.3131 85.9862 24.3867Q85.8586 24.4604 85.7244 24.5212Q85.5902 24.582 85.4507 24.6294Q85.3111 24.6767 85.1677 24.7102Q85.0242 24.7436 84.8781 24.7629Q84.732 24.7821 84.5848 24.7869Q84.4375 24.7917 84.2905 24.7821Q84.1435 24.7725 83.9981 24.7485Q83.8528 24.7245 83.7105 24.6863L83.7085 24.6858Q83.5662 24.6477 83.4283 24.5958Q83.2905 24.5439 83.1583 24.4787Q83.0262 24.4136 82.9011 24.3358Q82.776 24.258 82.6591 24.1683Q82.5422 24.0786 82.4346 23.9779Q82.3271 23.8772 82.23 23.7664Q82.1328 23.6556 82.047 23.5359Q81.9612 23.4161 81.8875 23.2885Q81.8139 23.1609 81.7531 23.0267Q81.6923 22.8925 81.6449 22.753Q81.5975 22.6135 81.5641 22.47Q81.5306 22.3265 81.5114 22.1805Q81.4922 22.0344 81.4873 21.8871Q81.4825 21.7399 81.4921 21.5929Q81.5018 21.4459 81.5258 21.3005Q81.5498 21.1551 81.5879 21.0128L86.506 2.65829Q86.5441 2.51598 86.596 2.37809Q86.6479 2.2402 86.7131 2.10807Q86.7783 1.97593 86.8561 1.85082Q86.9339 1.7257 87.0235 1.60882Q87.1132 1.49193 87.214 1.3844Q87.3147 1.27687 87.4254 1.17972Q87.5362 1.08258 87.656 0.996764Q87.7757 0.910947 87.9033 0.837281Q88.0309 0.763615 88.1651 0.70281Q88.2993 0.642006 88.4388 0.594648Q88.5783 0.547289 88.7218 0.513834Q88.8653 0.480379 89.0114 0.461148Q89.1574 0.441918 89.3047 0.437097Q89.452 0.432276 89.599 0.441912Q89.746 0.451548 89.8913 0.475548Q90.0367 0.499548 90.179 0.53768ZM13.0479 0.664707L13.046 0.664189Q12.9037 0.626057 12.7583 0.602057Q12.613 0.578057 12.466 0.568421Q12.3189 0.558785 12.1717 0.563606Q12.0244 0.568426 11.8784 0.587657Q11.7323 0.606888 11.5888 0.640343Q11.4453 0.673798 11.3058 0.721157Q11.1663 0.768515 11.0321 0.829319Q10.8979 0.890124 10.7703 0.96379Q10.6427 1.03746 10.523 1.12327Q10.4032 1.20909 10.2924 1.30623Q10.1817 1.40337 10.0809 1.51091Q9.98024 1.61844 9.89054 1.73532Q9.80086 1.85221 9.72305 1.97732Q9.64525 2.10244 9.58009 2.23458Q9.51493 2.36671 9.46303 2.5046Q9.41113 2.64249 9.373 2.7848L0.831447 34.6623Q0.793314 34.8046 0.769315 34.95Q0.745315 35.0953 0.735679 35.2423Q0.726043 35.3894 0.730864 35.5366Q0.735684 35.6839 0.754915 35.8299Q0.774145 35.976 0.807601 36.1195Q0.841056 36.263 0.888414 36.4025Q0.935772 36.542 0.996577 36.6762Q1.05738 36.8104 1.13105 36.938Q1.20471 37.0656 1.29053 37.1853Q1.37635 37.3051 1.47349 37.4159Q1.57063 37.5266 1.67816 37.6273Q1.7857 37.7281 1.90258 37.8177Q2.01947 37.9074 2.14458 37.9852Q2.2697 38.063 2.40183 38.1282Q2.53397 38.1934 2.67186 38.2453Q2.80975 38.2972 2.95206 38.3353L2.95399 38.3358Q3.2393 38.4123 3.53404 38.4316Q3.82879 38.4509 4.12164 38.4123Q4.41448 38.3738 4.69419 38.2788Q4.97389 38.1839 5.22969 38.0362Q5.48549 37.8885 5.70757 37.6938Q5.92964 37.499 6.10946 37.2647Q6.28927 37.0303 6.41991 36.7654Q6.55055 36.5005 6.627 36.2152L15.1686 4.33772Q15.245 4.05241 15.2643 3.75766Q15.2836 3.46292 15.2451 3.17007Q15.2065 2.87722 15.1116 2.59752Q15.0166 2.31782 14.869 2.06202Q14.7213 1.80622 14.5265 1.58414Q14.3318 1.36207 14.0974 1.18225Q13.8631 1.00244 13.5982 0.871797Q13.3333 0.741156 13.0479 0.664707ZM60.9927 0.859363L60.9908 0.858846Q60.8484 0.820714 60.7031 0.796714Q60.5577 0.772714 60.4107 0.763078Q60.2637 0.753442 60.1164 0.758263Q59.9692 0.763083 59.8231 0.782314Q59.677 0.801544 59.5336 0.835Q59.3901 0.868455 59.2506 0.915813Q59.111 0.963171 58.9768 1.02398Q58.8426 1.08478 58.7151 1.15845Q58.5875 1.23211 58.4677 1.31793Q58.3479 1.40375 58.2372 1.50089Q58.1264 1.59803 58.0257 1.70556Q57.925 1.8131 57.8353 1.92998Q57.7456 2.04687 57.6678 2.17198Q57.59 2.2971 57.5248 2.42923Q57.4597 2.56137 57.4078 2.69926Q57.3559 2.83715 57.3177 2.97946L48.7762 34.8569Q48.7381 34.9993 48.7141 35.1446Q48.6901 35.29 48.6804 35.437Q48.6708 35.584 48.6756 35.7313Q48.6804 35.8785 48.6997 36.0246Q48.7189 36.1707 48.7523 36.3141Q48.7858 36.4576 48.8332 36.5971Q48.8805 36.7366 48.9413 36.8708Q49.0021 37.005 49.0758 37.1326Q49.1495 37.2602 49.2353 37.38Q49.3211 37.4997 49.4182 37.6105Q49.5154 37.7213 49.6229 37.822Q49.7304 37.9227 49.8473 38.0124Q49.9642 38.1021 50.0893 38.1799Q50.2144 38.2577 50.3466 38.3229Q50.4787 38.388 50.6166 38.4399Q50.7545 38.4918 50.8968 38.5299L50.8987 38.5305Q51.041 38.5686 51.1864 38.5926Q51.3318 38.6166 51.4788 38.6262Q51.6258 38.6359 51.7731 38.6311Q51.9203 38.6262 52.0664 38.607Q52.2125 38.5878 52.3559 38.5543Q52.4994 38.5209 52.6389 38.4735Q52.7784 38.4261 52.9126 38.3653Q53.0468 38.3045 53.1744 38.2309Q53.302 38.1572 53.4218 38.0714Q53.5415 37.9856 53.6523 37.8884Q53.7631 37.7913 53.8638 37.6838Q53.9645 37.5762 54.0542 37.4593Q54.1439 37.3424 54.2217 37.2173Q54.2995 37.0922 54.3647 36.9601Q54.4298 36.8279 54.4817 36.6901Q54.5336 36.5522 54.5718 36.4099L63.1133 4.53237Q63.1898 4.24706 63.2091 3.95232Q63.2284 3.65758 63.1898 3.36473Q63.1513 3.07188 63.0563 2.79218Q62.9614 2.51248 62.8137 2.25668Q62.666 2.00087 62.4713 1.7788Q62.2765 1.55672 62.0422 1.37691Q61.8078 1.1971 61.5429 1.06645Q61.278 0.935812 60.9927 0.859363ZM75.6514 0.859364L75.6495 0.858846Q75.5072 0.820714 75.3618 0.796715Q75.2165 0.772715 75.0694 0.763079Q74.9224 0.753443 74.7752 0.758264Q74.6279 0.763084 74.4818 0.782315Q74.3358 0.801545 74.1923 0.835001Q74.0488 0.868456 73.9093 0.915814Q73.7698 0.963172 73.6356 1.02398Q73.5014 1.08478 73.3738 1.15845Q73.2462 1.23211 73.1264 1.31793Q73.0067 1.40375 72.8959 1.50089Q72.7851 1.59803 72.6844 1.70556Q72.5837 1.8131 72.494 1.92998Q72.4043 2.04687 72.3265 2.17198Q72.2487 2.2971 72.1836 2.42923Q72.1184 2.56137 72.0665 2.69926Q72.0146 2.83715 71.9765 2.97946L58.7762 52.2436Q58.7381 52.3859 58.7141 52.5313Q58.6901 52.6766 58.6804 52.8237Q58.6708 52.9707 58.6756 53.1179Q58.6804 53.2652 58.6996 53.4112Q58.7189 53.5573 58.7523 53.7008Q58.7858 53.8443 58.8331 53.9838Q58.8805 54.1233 58.9413 54.2575Q59.0021 54.3917 59.0758 54.5193Q59.1494 54.6469 59.2353 54.7667Q59.3211 54.8864 59.4182 54.9972Q59.5154 55.1079 59.6229 55.2087Q59.7304 55.3094 59.8473 55.3991Q59.9642 55.4888 60.0893 55.5666Q60.2144 55.6444 60.3466 55.7095Q60.4787 55.7747 60.6166 55.8266Q60.7545 55.8785 60.8968 55.9166L60.8987 55.9171Q61.041 55.9553 61.1864 55.9793Q61.3318 56.0033 61.4788 56.0129Q61.6258 56.0225 61.773 56.0177Q61.9203 56.0129 62.0664 55.9937Q62.2124 55.9744 62.3559 55.941Q62.4994 55.9075 62.6389 55.8602Q62.7784 55.8128 62.9126 55.752Q63.0468 55.6912 63.1744 55.6175Q63.302 55.5439 63.4218 55.458Q63.5415 55.3722 63.6523 55.2751Q63.7631 55.1779 63.8638 55.0704Q63.9645 54.9629 64.0542 54.846Q64.1439 54.7291 64.2217 54.604Q64.2995 54.4789 64.3646 54.3467Q64.4298 54.2146 64.4817 54.0767Q64.5336 53.9388 64.5717 53.7965L77.772 4.53237Q77.8485 4.24706 77.8678 3.95232Q77.8871 3.65758 77.8486 3.36473Q77.81 3.07188 77.7151 2.79218Q77.6201 2.51248 77.4724 2.25668Q77.3247 2.00087 77.13 1.7788Q76.9352 1.55672 76.7009 1.37691Q76.4666 1.1971 76.2017 1.06645Q75.9367 0.935813 75.6514 0.859364ZM28.3221 1.08339L28.3201 1.08287Q28.1778 1.04474 28.0325 1.02074Q27.8871 0.996736 27.7401 0.9871Q27.5931 0.977464 27.4458 0.982285Q27.2986 0.987105 27.1525 1.00634Q27.0064 1.02557 26.8629 1.05902Q26.7194 1.09248 26.5799 1.13984Q26.4404 1.18719 26.3062 1.248Q26.172 1.3088 26.0444 1.38247Q25.9168 1.45613 25.7971 1.54195Q25.6773 1.62777 25.5666 1.72491Q25.4558 1.82205 25.3551 1.92959Q25.2544 2.03712 25.1647 2.154Q25.075 2.27089 24.9972 2.396Q24.9194 2.52112 24.8542 2.65325Q24.7891 2.78539 24.7372 2.92328Q24.6853 3.06117 24.6471 3.20348L11.4468 52.4676Q11.4087 52.6099 11.3847 52.7553Q11.3607 52.9007 11.3511 53.0477Q11.3414 53.1947 11.3462 53.3419Q11.3511 53.4892 11.3703 53.6353Q11.3895 53.7813 11.423 53.9248Q11.4564 54.0683 11.5038 54.2078Q11.5511 54.3473 11.612 54.4815Q11.6728 54.6157 11.7464 54.7433Q11.8201 54.8709 11.9059 54.9907Q11.9917 55.1104 12.0889 55.2212Q12.186 55.332 12.2935 55.4327Q12.4011 55.5334 12.518 55.6231Q12.6348 55.7128 12.76 55.7906Q12.8851 55.8684 13.0172 55.9335Q13.1493 55.9987 13.2872 56.0506Q13.4251 56.1025 13.5674 56.1406L13.5694 56.1412Q13.7117 56.1793 13.857 56.2033Q14.0024 56.2273 14.1494 56.2369Q14.2964 56.2466 14.4437 56.2417Q14.5909 56.2369 14.737 56.2177Q14.8831 56.1985 15.0266 56.165Q15.17 56.1315 15.3096 56.0842Q15.4491 56.0368 15.5833 55.976Q15.7175 55.9152 15.8451 55.8415Q15.9727 55.7679 16.0924 55.6821Q16.2122 55.5962 16.3229 55.4991Q16.4337 55.402 16.5344 55.2944Q16.6351 55.1869 16.7248 55.07Q16.8145 54.9531 16.8923 54.828Q16.9701 54.7029 17.0353 54.5708Q17.1004 54.4386 17.1523 54.3007Q17.2042 54.1629 17.2424 54.0205L30.4427 4.7564Q30.5191 4.47109 30.5384 4.17634Q30.5578 3.8816 30.5192 3.58875Q30.4806 3.2959 30.3857 3.0162Q30.2908 2.7365 30.1431 2.4807Q29.9954 2.2249 29.8006 2.00282Q29.6059 1.78074 29.3715 1.60093Q29.1372 1.42112 28.8723 1.29048Q28.6074 1.15983 28.3221 1.08339ZM45.2377 1.11694L45.2396 1.11746Q45.3819 1.15559 45.5198 1.20749Q45.6577 1.25939 45.7898 1.32455Q45.922 1.38971 46.0471 1.46751Q46.1722 1.54532 46.2891 1.63501Q46.406 1.72469 46.5135 1.82541Q46.621 1.92612 46.7182 2.03689Q46.8153 2.14766 46.9011 2.26742Q46.987 2.38718 47.0606 2.51477Q47.1343 2.64236 47.1951 2.77656Q47.2559 2.91076 47.3033 3.05027Q47.3506 3.18979 47.3841 3.33327Q47.4175 3.47675 47.4368 3.62282Q47.456 3.76889 47.4608 3.91615Q47.4656 4.0634 47.456 4.21042Q47.4464 4.35743 47.4224 4.5028Q47.3984 4.64816 47.3602 4.79047L28.9836 73.3731Q28.9071 73.6584 28.7765 73.9233Q28.6458 74.1883 28.466 74.4226Q28.2862 74.6569 28.0641 74.8517Q27.842 75.0464 27.5862 75.1941Q27.3304 75.3418 27.0507 75.4368Q26.771 75.5317 26.4782 75.5703Q26.1853 75.6088 25.8906 75.5895Q25.5958 75.5702 25.3105 75.4937L25.3086 75.4932Q25.1663 75.4551 25.0284 75.4032Q24.8905 75.3513 24.7584 75.2861Q24.6262 75.221 24.5011 75.1432Q24.376 75.0654 24.2591 74.9757Q24.1422 74.886 24.0347 74.7853Q23.9272 74.6845 23.83 74.5738Q23.7329 74.463 23.6471 74.3433Q23.5613 74.2235 23.4876 74.0959Q23.4139 73.9683 23.3531 73.8341Q23.2923 73.6999 23.245 73.5604Q23.1976 73.4209 23.1641 73.2774Q23.1307 73.1339 23.1115 72.9879Q23.0922 72.8418 23.0874 72.6945Q23.0826 72.5473 23.0922 72.4003Q23.1019 72.2533 23.1259 72.1079Q23.1499 71.9625 23.188 71.8202L41.5647 3.23755Q41.6028 3.09524 41.6547 2.95736Q41.7066 2.81947 41.7718 2.68733Q41.8369 2.55519 41.9147 2.43008Q41.9925 2.30496 42.0822 2.18808Q42.1719 2.07119 42.2726 1.96366Q42.3733 1.85613 42.4841 1.75899Q42.5949 1.66184 42.7146 1.57603Q42.8344 1.49021 42.962 1.41654Q43.0896 1.34288 43.2238 1.28207Q43.358 1.22127 43.4975 1.17391Q43.637 1.12655 43.7805 1.0931Q43.924 1.05964 44.07 1.04041Q44.2161 1.02118 44.3634 1.01636Q44.5106 1.01154 44.6576 1.02118Q44.8047 1.03081 44.95 1.05481Q45.0954 1.07881 45.2377 1.11694Z" id="Rectangle-100" fill="#ADE8FF" fill-rule="evenodd" stroke="none" />
      </g>
    </g>
  </g>
</svg>