<?xml version="1.0" encoding="utf-8"?>
<svg width="180px" height="200.5px" viewBox="0 0 180 200.5" version="1.1" xmlns:xlink="http://www.w3.org/1999/xlink" xmlns="http://www.w3.org/2000/svg">
  <defs>
    <path d="M3.999 0L77.001 0Q77.1975 0 77.393 0.0192563Q77.5885 0.0385126 77.7812 0.0768396Q77.9738 0.115167 78.1618 0.172196Q78.3499 0.229224 78.5313 0.304406Q78.7128 0.379587 78.8861 0.472197Q79.0594 0.564807 79.2227 0.673953Q79.3861 0.783099 79.5379 0.907731Q79.6898 1.03236 79.8287 1.17128Q79.9676 1.3102 80.0923 1.46206Q80.2169 1.61393 80.326 1.77727Q80.4352 1.94062 80.5278 2.11388Q80.6204 2.28715 80.6956 2.46865Q80.7708 2.65015 80.8278 2.83815Q80.8848 3.02615 80.9231 3.21883Q80.9615 3.41152 80.9807 3.60703Q81 3.80254 81 3.999L81 77.001Q81 77.1975 80.9807 77.393Q80.9615 77.5885 80.9231 77.7812Q80.8848 77.9738 80.8278 78.1618Q80.7708 78.3499 80.6956 78.5313Q80.6204 78.7128 80.5278 78.8861Q80.4352 79.0594 80.326 79.2227Q80.2169 79.3861 80.0923 79.5379Q79.9676 79.6898 79.8287 79.8287Q79.6898 79.9676 79.5379 80.0923Q79.3861 80.2169 79.2227 80.326Q79.0594 80.4352 78.8861 80.5278Q78.7128 80.6204 78.5313 80.6956Q78.3498 80.7708 78.1618 80.8278Q77.9738 80.8848 77.7812 80.9231Q77.5885 80.9615 77.393 80.9807Q77.1975 81 77.001 81L3.999 81Q3.80254 81 3.60703 80.9807Q3.41152 80.9615 3.21883 80.9231Q3.02615 80.8848 2.83815 80.8278Q2.65015 80.7708 2.46865 80.6956Q2.28715 80.6204 2.11388 80.5278Q1.94062 80.4352 1.77727 80.326Q1.61393 80.2169 1.46206 80.0923Q1.3102 79.9676 1.17128 79.8287Q1.03236 79.6898 0.907731 79.5379Q0.783099 79.3861 0.673953 79.2227Q0.564807 79.0594 0.472197 78.8861Q0.379587 78.7128 0.304406 78.5313Q0.229224 78.3498 0.172196 78.1618Q0.115167 77.9738 0.0768396 77.7812Q0.0385126 77.5885 0.0192563 77.393Q0 77.1975 0 77.001L0 3.999Q0 3.80254 0.0192563 3.60703Q0.0385126 3.41152 0.0768396 3.21883Q0.115167 3.02615 0.172196 2.83815Q0.229224 2.65015 0.304406 2.46865Q0.379587 2.28715 0.472197 2.11388Q0.564807 1.94062 0.673953 1.77727Q0.783099 1.61393 0.907731 1.46206Q1.03236 1.3102 1.17128 1.17128Q1.3102 1.03236 1.46206 0.907731Q1.61393 0.783099 1.77727 0.673953Q1.94062 0.564807 2.11388 0.472197Q2.28715 0.379587 2.46865 0.304406Q2.65015 0.229224 2.83815 0.172196Q3.02615 0.115167 3.21883 0.0768396Q3.41152 0.0385126 3.60703 0.0192563Q3.80254 0 3.999 0Z" id="path_1" />
  </defs>
  <g id="ModSnow" transform="translate(1 1)">
    <g id="bg">
      <g id="Rectangle-68">
        <use xlink:href="#path_1" fill="none" stroke="#FFFFFF" stroke-opacity="0.011764706" stroke-width="2" />
      </g>
    </g>
    <g id="icon" transform="translate(56 36)">
      <g id="snow" transform="translate(0 20)">
        <path d="M57.7087 40.1531L43.4328 26.4751C41.7546 24.8672 41.739 22.2753 43.4239 20.6609C45.0972 19.0577 47.8126 19.0601 49.4923 20.6694L57.7087 28.5416L57.7087 4.11821C57.7087 1.84379 59.6105 0 61.9934 0C64.3598 0 66.2782 1.81903 66.2782 4.11821L66.2782 28.673L74.6316 20.6694C76.3098 19.0615 79.015 19.0465 80.7 20.6609C82.3733 22.2641 82.3708 24.8658 80.6911 26.4751L66.2782 40.2844L66.2782 63.6528L86.3721 52.0515L91.1714 32.6554C91.7289 30.4023 93.9808 29.0994 96.2023 29.7406C98.4393 30.3864 99.7731 32.7266 99.2161 34.9777L96.4279 46.2458L115.979 33.7941C117.948 32.6569 120.492 33.3749 121.678 35.4297C122.856 37.4703 122.236 40.034 120.245 41.1835L100.708 53.6272L111.838 56.8401C114.068 57.4839 115.422 59.8242 114.867 62.0687C114.308 64.3288 112.055 65.6113 109.827 64.9681L90.6525 59.4329L70.1573 71.2658L90.8488 83.2121L109.801 77.7409C112.029 77.0977 114.282 78.3802 114.841 80.6404C115.397 82.8848 114.043 85.2252 111.813 85.8689L100.905 89.0178L120.242 101.346C122.212 102.484 122.862 105.045 121.675 107.1C120.497 109.141 117.967 109.885 115.976 108.736L96.5245 96.3416L99.297 107.547C99.854 109.798 98.5202 112.138 96.2832 112.784C94.0618 113.425 91.8099 112.122 91.2524 109.869L86.4687 90.5359L66.2782 78.8789L66.2782 102.601L80.7382 116.455C82.4179 118.064 82.4204 120.666 80.7471 122.269C79.0621 123.884 76.3569 123.869 74.6787 122.261L66.2782 114.212L66.2782 138.882C66.2782 141.156 64.3763 143 61.9934 143C59.627 143 57.7087 141.181 57.7087 138.882L57.7087 114.228L49.3252 122.261C47.6455 123.87 44.93 123.872 43.2568 122.269C41.5718 120.655 41.5874 118.063 43.2656 116.455L57.7087 102.617L57.7087 78.453L36.5573 90.6648L31.8191 109.814C31.2621 112.065 29.0252 113.374 26.7883 112.729C24.5668 112.087 23.217 109.745 23.7745 107.492L26.5015 96.4705L7.16417 108.799C5.19446 109.936 2.65086 109.218 1.46453 107.163C0.286424 105.123 0.906706 102.559 2.89785 101.41L22.3489 89.0154L11.2589 85.8139C9.0309 85.1708 7.67111 82.8455 8.23035 80.5854C8.78572 78.3409 11.0401 77.0422 13.27 77.6859L32.4047 83.2096L53.092 71.2658L32.5013 59.3778L13.3041 64.9195C11.0741 65.5633 8.81979 64.2646 8.26441 62.0201C7.70518 59.7599 9.06496 57.4347 11.2929 56.7915L22.4455 53.5721L2.89485 41.1203C0.925122 39.9831 0.275204 37.4212 1.46153 35.3665C2.63965 33.3259 5.17001 32.5812 7.16116 33.7308L26.6977 46.1745L23.9152 34.9291C23.3577 32.676 24.7075 30.3333 26.929 29.692C29.166 29.0463 31.4029 30.3557 31.9599 32.6068L36.7535 51.9802L57.7087 64.0787L57.7087 40.1531Z" id="Rectangle-68" fill="#FFFFFF" fill-opacity="0.69803923" fill-rule="evenodd" stroke="none" />
      </g>
      <path d="M52.5313 60.6061L40.7972 49.3634C37.4751 46.1805 37.4599 40.9616 40.7883 37.7726C44.0108 34.6851 49.1665 34.6915 52.3913 37.7811L53.8403 39L53.8403 24.1182C53.8403 19.5954 57.5712 16 62.1251 16C66.6713 16 70.4098 19.5783 70.4098 24.1182L70.4098 39L71.9959 37.7811C75.2219 34.6903 80.3675 34.6765 83.5989 37.7726C86.9181 40.9528 86.9111 46.1815 83.59 49.3634L71.8559 60.6061L72.5098 60.6061L72.7846 60.606L72.8333 60.6061L85.2152 60.6061L87.4202 51.6946C88.522 47.2416 93.0384 44.626 97.4433 45.8976C101.744 47.1392 104.304 51.6002 103.231 55.9385L102.64 58.2686L109.412 53.5739C111.048 51.1245 112 48.194 112 45.045C112 39.1109 108.62 33.9526 103.649 31.328C103.661 30.9877 103.667 30.646 103.667 30.303C103.667 13.5671 89.8621 0 72.8333 0C59.3249 0 47.8454 8.53749 43.6764 20.4217C40.6824 18.8862 37.2777 18.018 33.6667 18.018C21.7005 18.018 12 27.5517 12 39.312C12 46.0648 15.1983 52.0835 20.1874 55.9847L20.164 55.8899C19.0909 51.5532 21.662 47.0872 25.9513 45.849C30.3684 44.5739 34.8722 47.1916 35.9744 51.646L38.1914 60.6061L52.5313 60.6061Z" id="big-snow-cloud" fill="#FFFFFF" fill-rule="evenodd" stroke="none" />
    </g>
  </g>
</svg>