<?xml version="1.0" encoding="utf-8"?>
<svg width="202px" height="199px" viewBox="0 0 202 199" version="1.1" xmlns:xlink="http://www.w3.org/1999/xlink" xmlns="http://www.w3.org/2000/svg">
  <defs>
    <path d="M3.999 0L77.001 0Q77.1975 0 77.393 0.0192563Q77.5885 0.0385126 77.7812 0.0768396Q77.9738 0.115167 78.1618 0.172196Q78.3499 0.229224 78.5313 0.304406Q78.7128 0.379587 78.8861 0.472197Q79.0594 0.564807 79.2227 0.673953Q79.3861 0.783099 79.5379 0.907731Q79.6898 1.03236 79.8287 1.17128Q79.9676 1.3102 80.0923 1.46206Q80.2169 1.61393 80.326 1.77727Q80.4352 1.94062 80.5278 2.11388Q80.6204 2.28715 80.6956 2.46865Q80.7708 2.65015 80.8278 2.83815Q80.8848 3.02615 80.9231 3.21883Q80.9615 3.41152 80.9807 3.60703Q81 3.80254 81 3.999L81 77.001Q81 77.1975 80.9807 77.393Q80.9615 77.5885 80.9231 77.7812Q80.8848 77.9738 80.8278 78.1618Q80.7708 78.3499 80.6956 78.5313Q80.6204 78.7128 80.5278 78.8861Q80.4352 79.0594 80.326 79.2227Q80.2169 79.3861 80.0923 79.5379Q79.9676 79.6898 79.8287 79.8287Q79.6898 79.9676 79.5379 80.0923Q79.3861 80.2169 79.2227 80.326Q79.0594 80.4352 78.8861 80.5278Q78.7128 80.6204 78.5313 80.6956Q78.3498 80.7708 78.1618 80.8278Q77.9738 80.8848 77.7812 80.9231Q77.5885 80.9615 77.393 80.9807Q77.1975 81 77.001 81L3.999 81Q3.80254 81 3.60703 80.9807Q3.41152 80.9615 3.21883 80.9231Q3.02615 80.8848 2.83815 80.8278Q2.65015 80.7708 2.46865 80.6956Q2.28715 80.6204 2.11388 80.5278Q1.94062 80.4352 1.77727 80.326Q1.61393 80.2169 1.46206 80.0923Q1.3102 79.9676 1.17128 79.8287Q1.03236 79.6898 0.907731 79.5379Q0.783099 79.3861 0.673953 79.2227Q0.564807 79.0594 0.472197 78.8861Q0.379587 78.7128 0.304406 78.5313Q0.229224 78.3498 0.172196 78.1618Q0.115167 77.9738 0.0768396 77.7812Q0.0385126 77.5885 0.0192563 77.393Q0 77.1975 0 77.001L0 3.999Q0 3.80254 0.0192563 3.60703Q0.0385126 3.41152 0.0768396 3.21883Q0.115167 3.02615 0.172196 2.83815Q0.229224 2.65015 0.304406 2.46865Q0.379587 2.28715 0.472197 2.11388Q0.564807 1.94062 0.673953 1.77727Q0.783099 1.61393 0.907731 1.46206Q1.03236 1.3102 1.17128 1.17128Q1.3102 1.03236 1.46206 0.907731Q1.61393 0.783099 1.77727 0.673953Q1.94062 0.564807 2.11388 0.472197Q2.28715 0.379587 2.46865 0.304406Q2.65015 0.229224 2.83815 0.172196Q3.02615 0.115167 3.21883 0.0768396Q3.41152 0.0385126 3.60703 0.0192563Q3.80254 0 3.999 0Z" id="path_1" />
  </defs>
  <g id="Mist" transform="translate(1 1)">
    <g id="bg">
      <g id="Rectangle-68">
        <use xlink:href="#path_1" fill="none" stroke="#FFFFFF" stroke-opacity="0.011764706" stroke-width="2" />
      </g>
    </g>
    <g id="icon" transform="translate(33 29)">
      <g id="cloud-200w">
        <path d="M101.395 103.333L36.3063 103.333C16.2549 103.333 0 87.0784 0 67.027C0 46.9756 16.2549 30.7207 36.3063 30.7207C42.3572 30.7207 48.0623 32.201 53.0794 34.8191C60.0653 14.5564 79.3012 0 101.937 0C130.472 0 153.604 23.132 153.604 51.6667C153.604 52.2515 153.594 52.834 153.575 53.4142C161.904 57.8892 167.568 66.6841 167.568 76.8018C167.568 91.4548 155.689 103.333 141.036 103.333L101.937 103.333C101.855 103.333 101.395 103.333 101.395 103.333L101.937 103.333L101.395 103.333Z" id="Oval-4" fill="#FFFFFF" fill-rule="evenodd" stroke="none" />
      </g>
      <g id="fog" transform="translate(23 117)">
        <path d="M0 4.83233Q0 4.72189 0.00541924 4.61158Q0.0108385 4.50127 0.0216639 4.39135Q0.0324893 4.28144 0.0486949 4.17219Q0.0649004 4.06294 0.086447 3.95462Q0.107994 3.8463 0.134829 3.73917Q0.161665 3.63203 0.193725 3.52634Q0.225786 3.42065 0.262993 3.31667Q0.300201 3.21268 0.342466 3.11064Q0.384731 3.0086 0.431952 2.90876Q0.479173 2.80892 0.531236 2.71152Q0.583299 2.61412 0.640079 2.51939Q0.696859 2.42465 0.758218 2.33282Q0.819578 2.24099 0.885369 2.15228Q0.951161 2.06357 1.02123 1.9782Q1.09129 1.89282 1.16546 1.81099Q1.23963 1.72916 1.31773 1.65106Q1.39582 1.57296 1.47766 1.49879Q1.55949 1.42462 1.64486 1.35456Q1.73024 1.28449 1.81895 1.2187Q1.90766 1.15291 1.99949 1.09155Q2.09132 1.03019 2.18605 0.973412Q2.28078 0.916633 2.37819 0.86457Q2.47559 0.812506 2.57543 0.765285Q2.67527 0.718064 2.77731 0.675799Q2.87934 0.633534 2.98333 0.596327Q3.08732 0.559119 3.19301 0.527059Q3.2987 0.494998 3.40583 0.468163Q3.51297 0.441327 3.62129 0.41978Q3.72961 0.398234 3.83886 0.382028Q3.94811 0.365823 4.05802 0.354997Q4.16793 0.344172 4.27824 0.338753Q4.38856 0.333333 4.499 0.333333L120.501 0.333333Q120.611 0.333333 120.722 0.338753Q120.832 0.344172 120.942 0.354997Q121.052 0.365823 121.161 0.382028Q121.27 0.398234 121.379 0.41978Q121.487 0.441327 121.594 0.468163Q121.701 0.494998 121.807 0.527059Q121.913 0.559119 122.017 0.596327Q122.121 0.633534 122.223 0.675799Q122.325 0.718064 122.425 0.765285Q122.524 0.812506 122.622 0.86457Q122.719 0.916633 122.814 0.973412Q122.909 1.03019 123 1.09155Q123.092 1.15291 123.181 1.2187Q123.27 1.28449 123.355 1.35456Q123.441 1.42462 123.522 1.49879Q123.604 1.57296 123.682 1.65106Q123.76 1.72916 123.835 1.81099Q123.909 1.89282 123.979 1.9782Q124.049 2.06357 124.115 2.15228Q124.18 2.24099 124.242 2.33282Q124.303 2.42465 124.36 2.51939Q124.417 2.61412 124.469 2.71152Q124.521 2.80892 124.568 2.90876Q124.615 3.0086 124.658 3.11064Q124.7 3.21268 124.737 3.31667Q124.774 3.42065 124.806 3.52634Q124.838 3.63203 124.865 3.73917Q124.892 3.8463 124.914 3.95462Q124.935 4.06294 124.951 4.17219Q124.968 4.28144 124.978 4.39135Q124.989 4.50127 124.995 4.61158Q125 4.72189 125 4.83233L125 5.83433Q125 5.94478 124.995 6.05509Q124.989 6.1654 124.978 6.27531Q124.968 6.38522 124.951 6.49447Q124.935 6.60372 124.914 6.71204Q124.892 6.82037 124.865 6.9275Q124.838 7.03464 124.806 7.14032Q124.774 7.24601 124.737 7.35Q124.7 7.45399 124.658 7.55602Q124.615 7.65806 124.568 7.7579Q124.521 7.85774 124.469 7.95515Q124.417 8.05255 124.36 8.14728Q124.303 8.24201 124.242 8.33384Q124.18 8.42567 124.115 8.51438Q124.049 8.60309 123.979 8.68847Q123.909 8.77384 123.835 8.85568Q123.76 8.93751 123.682 9.0156Q123.604 9.0937 123.522 9.16787Q123.441 9.24204 123.355 9.31211Q123.27 9.38217 123.181 9.44796Q123.092 9.51375 123 9.57511Q122.909 9.63647 122.814 9.69325Q122.719 9.75003 122.622 9.80209Q122.524 9.85416 122.425 9.90138Q122.325 9.9486 122.223 9.99086Q122.121 10.0331 122.017 10.0703Q121.913 10.1075 121.807 10.1396Q121.701 10.1717 121.594 10.1985Q121.487 10.2253 121.379 10.2469Q121.27 10.2684 121.161 10.2846Q121.052 10.3008 120.942 10.3117Q120.832 10.3225 120.722 10.3279Q120.611 10.3333 120.501 10.3333L4.499 10.3333Q4.38856 10.3333 4.27824 10.3279Q4.16793 10.3225 4.05802 10.3117Q3.94811 10.3008 3.83886 10.2846Q3.72961 10.2684 3.62129 10.2469Q3.51297 10.2253 3.40583 10.1985Q3.2987 10.1717 3.19301 10.1396Q3.08732 10.1075 2.98333 10.0703Q2.87934 10.0331 2.77731 9.99087Q2.67527 9.9486 2.57543 9.90138Q2.47559 9.85416 2.37819 9.8021Q2.28078 9.75003 2.18605 9.69325Q2.09132 9.63647 1.99949 9.57511Q1.90766 9.51375 1.81895 9.44796Q1.73024 9.38217 1.64486 9.31211Q1.55949 9.24204 1.47766 9.16787Q1.39582 9.0937 1.31773 9.01561Q1.23963 8.93751 1.16546 8.85568Q1.09129 8.77384 1.02123 8.68847Q0.951161 8.60309 0.885369 8.51438Q0.819578 8.42567 0.758218 8.33384Q0.696859 8.24201 0.640079 8.14728Q0.583299 8.05255 0.531236 7.95515Q0.479173 7.85774 0.431952 7.7579Q0.384731 7.65806 0.342466 7.55603Q0.300201 7.45399 0.262993 7.35Q0.225786 7.24601 0.193725 7.14032Q0.161665 7.03464 0.134829 6.9275Q0.107994 6.82037 0.086447 6.71204Q0.0649004 6.60372 0.0486949 6.49447Q0.0324893 6.38522 0.0216639 6.27531Q0.0108385 6.1654 0.00541924 6.05509Q0 5.94478 0 5.83433L0 4.83233ZM0 25.499Q0 25.3886 0.00541924 25.2782Q0.0108385 25.1679 0.0216639 25.058Q0.0324893 24.9481 0.0486949 24.8389Q0.0649004 24.7296 0.086447 24.6213Q0.107994 24.513 0.134829 24.4058Q0.161665 24.2987 0.193725 24.193Q0.225786 24.0873 0.262993 23.9833Q0.300201 23.8793 0.342466 23.7773Q0.384731 23.6753 0.431952 23.5754Q0.479173 23.4756 0.531236 23.3782Q0.583299 23.2808 0.640079 23.1861Q0.696859 23.0913 0.758218 22.9995Q0.819578 22.9077 0.885369 22.8189Q0.951161 22.7302 1.02123 22.6449Q1.09129 22.5595 1.16546 22.4777Q1.23963 22.3958 1.31773 22.3177Q1.39582 22.2396 1.47766 22.1655Q1.55949 22.0913 1.64486 22.0212Q1.73024 21.9512 1.81895 21.8854Q1.90766 21.8196 1.99949 21.7582Q2.09132 21.6969 2.18605 21.6401Q2.28078 21.5833 2.37819 21.5312Q2.47559 21.4792 2.57543 21.432Q2.67527 21.3847 2.77731 21.3425Q2.87934 21.3002 2.98333 21.263Q3.08732 21.2258 3.19301 21.1937Q3.2987 21.1617 3.40583 21.1348Q3.51297 21.108 3.62129 21.0864Q3.72961 21.0649 3.83886 21.0487Q3.94811 21.0325 4.05802 21.0217Q4.16793 21.0108 4.27824 21.0054Q4.38856 21 4.499 21L120.501 21Q120.611 21 120.722 21.0054Q120.832 21.0108 120.942 21.0217Q121.052 21.0325 121.161 21.0487Q121.27 21.0649 121.379 21.0864Q121.487 21.108 121.594 21.1348Q121.701 21.1617 121.807 21.1937Q121.913 21.2258 122.017 21.263Q122.121 21.3002 122.223 21.3425Q122.325 21.3847 122.425 21.432Q122.524 21.4792 122.622 21.5312Q122.719 21.5833 122.814 21.6401Q122.909 21.6969 123 21.7582Q123.092 21.8196 123.181 21.8854Q123.27 21.9512 123.355 22.0212Q123.441 22.0913 123.522 22.1655Q123.604 22.2396 123.682 22.3177Q123.76 22.3958 123.835 22.4777Q123.909 22.5595 123.979 22.6449Q124.049 22.7302 124.115 22.8189Q124.18 22.9077 124.242 22.9995Q124.303 23.0913 124.36 23.1861Q124.417 23.2808 124.469 23.3782Q124.521 23.4756 124.568 23.5754Q124.615 23.6753 124.658 23.7773Q124.7 23.8793 124.737 23.9833Q124.774 24.0873 124.806 24.193Q124.838 24.2987 124.865 24.4058Q124.892 24.513 124.914 24.6213Q124.935 24.7296 124.951 24.8389Q124.968 24.9481 124.978 25.058Q124.989 25.1679 124.995 25.2782Q125 25.3886 125 25.499L125 26.501Q125 26.6114 124.995 26.7218Q124.989 26.8321 124.978 26.942Q124.968 27.0519 124.951 27.1611Q124.935 27.2704 124.914 27.3787Q124.892 27.487 124.865 27.5942Q124.838 27.7013 124.806 27.807Q124.774 27.9127 124.737 28.0167Q124.7 28.1207 124.658 28.2227Q124.615 28.3247 124.568 28.4246Q124.521 28.5244 124.469 28.6218Q124.417 28.7192 124.36 28.8139Q124.303 28.9087 124.242 29.0005Q124.18 29.0923 124.115 29.181Q124.049 29.2698 123.979 29.3551Q123.909 29.4405 123.835 29.5223Q123.76 29.6042 123.682 29.6823Q123.604 29.7604 123.522 29.8345Q123.441 29.9087 123.355 29.9788Q123.27 30.0488 123.181 30.1146Q123.092 30.1804 123 30.2418Q122.909 30.3031 122.814 30.3599Q122.719 30.4167 122.622 30.4688Q122.524 30.5208 122.425 30.568Q122.325 30.6153 122.223 30.6575Q122.121 30.6998 122.017 30.737Q121.913 30.7742 121.807 30.8063Q121.701 30.8383 121.594 30.8652Q121.487 30.892 121.379 30.9136Q121.27 30.9351 121.161 30.9513Q121.052 30.9675 120.942 30.9783Q120.832 30.9892 120.722 30.9946Q120.611 31 120.501 31L4.499 31Q4.38856 31 4.27824 30.9946Q4.16793 30.9892 4.05802 30.9783Q3.94811 30.9675 3.83886 30.9513Q3.72961 30.9351 3.62129 30.9136Q3.51297 30.892 3.40583 30.8652Q3.2987 30.8383 3.19301 30.8063Q3.08732 30.7742 2.98333 30.737Q2.87934 30.6998 2.77731 30.6575Q2.67527 30.6153 2.57543 30.568Q2.47559 30.5208 2.37819 30.4688Q2.28078 30.4167 2.18605 30.3599Q2.09132 30.3031 1.99949 30.2418Q1.90766 30.1804 1.81895 30.1146Q1.73024 30.0488 1.64486 29.9788Q1.55949 29.9087 1.47766 29.8345Q1.39582 29.7604 1.31773 29.6823Q1.23963 29.6042 1.16546 29.5223Q1.09129 29.4405 1.02123 29.3551Q0.951161 29.2698 0.885369 29.181Q0.819578 29.0923 0.758218 29.0005Q0.696859 28.9087 0.640079 28.8139Q0.583299 28.7192 0.531236 28.6218Q0.479173 28.5244 0.431952 28.4246Q0.384731 28.3247 0.342466 28.2227Q0.300201 28.1207 0.262993 28.0167Q0.225786 27.9127 0.193725 27.807Q0.161665 27.7013 0.134829 27.5942Q0.107994 27.487 0.086447 27.3787Q0.0649004 27.2704 0.0486949 27.1611Q0.0324893 27.0519 0.0216639 26.942Q0.0108385 26.8321 0.00541924 26.7218Q0 26.6114 0 26.501L0 25.499ZM0 46.1657Q0 46.0552 0.00541924 45.9449Q0.0108385 45.8346 0.0216639 45.7247Q0.0324893 45.6148 0.0486949 45.5055Q0.0649004 45.3963 0.086447 45.2879Q0.107994 45.1796 0.134829 45.0725Q0.161665 44.9654 0.193725 44.8597Q0.225786 44.754 0.262993 44.65Q0.300201 44.546 0.342466 44.444Q0.384731 44.3419 0.431952 44.2421Q0.479173 44.1423 0.531236 44.0448Q0.583299 43.9474 0.640079 43.8527Q0.696859 43.758 0.758218 43.6661Q0.819578 43.5743 0.885369 43.4856Q0.951161 43.3969 1.02123 43.3115Q1.09129 43.2262 1.16546 43.1443Q1.23963 43.0625 1.31773 42.9844Q1.39582 42.9063 1.47766 42.8321Q1.55949 42.7579 1.64486 42.6879Q1.73024 42.6178 1.81895 42.552Q1.90766 42.4862 1.99949 42.4249Q2.09132 42.3635 2.18605 42.3067Q2.28078 42.25 2.37819 42.1979Q2.47559 42.1458 2.57543 42.0986Q2.67527 42.0514 2.77731 42.0091Q2.87934 41.9669 2.98333 41.9297Q3.08732 41.8925 3.19301 41.8604Q3.2987 41.8283 3.40583 41.8015Q3.51297 41.7747 3.62129 41.7531Q3.72961 41.7316 3.83886 41.7154Q3.94811 41.6992 4.05802 41.6883Q4.16793 41.6775 4.27824 41.6721Q4.38856 41.6667 4.499 41.6667L120.501 41.6667Q120.611 41.6667 120.722 41.6721Q120.832 41.6775 120.942 41.6883Q121.052 41.6992 121.161 41.7154Q121.27 41.7316 121.379 41.7531Q121.487 41.7747 121.594 41.8015Q121.701 41.8283 121.807 41.8604Q121.913 41.8924 122.017 41.9297Q122.121 41.9669 122.223 42.0091Q122.325 42.0514 122.425 42.0986Q122.524 42.1458 122.622 42.1979Q122.719 42.25 122.814 42.3067Q122.909 42.3635 123 42.4249Q123.092 42.4862 123.181 42.552Q123.27 42.6178 123.355 42.6879Q123.441 42.7579 123.522 42.8321Q123.604 42.9063 123.682 42.9844Q123.76 43.0625 123.835 43.1443Q123.909 43.2262 123.979 43.3115Q124.049 43.3969 124.115 43.4856Q124.18 43.5743 124.242 43.6661Q124.303 43.758 124.36 43.8527Q124.417 43.9474 124.469 44.0448Q124.521 44.1423 124.568 44.2421Q124.615 44.3419 124.658 44.444Q124.7 44.546 124.737 44.65Q124.774 44.754 124.806 44.8597Q124.838 44.9654 124.865 45.0725Q124.892 45.1796 124.914 45.2879Q124.935 45.3963 124.951 45.5055Q124.968 45.6148 124.978 45.7247Q124.989 45.8346 124.995 45.9449Q125 46.0552 125 46.1657L125 47.1677Q125 47.2781 124.995 47.3884Q124.989 47.4987 124.978 47.6086Q124.968 47.7185 124.951 47.8278Q124.935 47.937 124.914 48.0454Q124.892 48.1537 124.865 48.2608Q124.838 48.368 124.806 48.4737Q124.774 48.5793 124.737 48.6833Q124.7 48.7873 124.658 48.8894Q124.615 48.9914 124.568 49.0912Q124.521 49.1911 124.469 49.2885Q124.417 49.3859 124.36 49.4806Q124.303 49.5753 124.242 49.6672Q124.18 49.759 124.115 49.8477Q124.049 49.9364 123.979 50.0218Q123.909 50.1072 123.835 50.189Q123.76 50.2708 123.682 50.3489Q123.604 50.427 123.522 50.5012Q123.441 50.5754 123.355 50.6454Q123.27 50.7155 123.181 50.7813Q123.092 50.8471 123 50.9084Q122.909 50.9698 122.814 51.0266Q122.719 51.0834 122.622 51.1354Q122.524 51.1875 122.425 51.2347Q122.325 51.2819 122.223 51.3242Q122.121 51.3665 122.017 51.4037Q121.913 51.4409 121.807 51.4729Q121.701 51.505 121.594 51.5318Q121.487 51.5587 121.379 51.5802Q121.27 51.6018 121.161 51.618Q121.052 51.6342 120.942 51.645Q120.832 51.6558 120.722 51.6612Q120.611 51.6667 120.501 51.6667L4.499 51.6667Q4.38856 51.6667 4.27824 51.6612Q4.16793 51.6558 4.05802 51.645Q3.94811 51.6342 3.83886 51.618Q3.72961 51.6018 3.62129 51.5802Q3.51297 51.5587 3.40583 51.5318Q3.2987 51.505 3.19301 51.4729Q3.08732 51.4409 2.98333 51.4037Q2.87934 51.3665 2.77731 51.3242Q2.67527 51.2819 2.57543 51.2347Q2.47559 51.1875 2.37819 51.1354Q2.28078 51.0834 2.18605 51.0266Q2.09132 50.9698 1.99949 50.9084Q1.90766 50.8471 1.81895 50.7813Q1.73024 50.7155 1.64486 50.6454Q1.55949 50.5754 1.47766 50.5012Q1.39582 50.427 1.31773 50.3489Q1.23963 50.2708 1.16546 50.189Q1.09129 50.1072 1.02123 50.0218Q0.951161 49.9364 0.885369 49.8477Q0.819578 49.759 0.758218 49.6672Q0.696859 49.5753 0.640079 49.4806Q0.583299 49.3859 0.531236 49.2885Q0.479173 49.1911 0.431952 49.0912Q0.384731 48.9914 0.342466 48.8894Q0.300201 48.7873 0.262993 48.6833Q0.225786 48.5793 0.193725 48.4737Q0.161665 48.368 0.134829 48.2608Q0.107994 48.1537 0.086447 48.0454Q0.0649004 47.937 0.0486949 47.8278Q0.0324893 47.7185 0.0216639 47.6086Q0.0108385 47.4987 0.00541924 47.3884Q0 47.2781 0 47.1677L0 46.1657Z" id="fog" fill="#000000" fill-opacity="0.4" fill-rule="evenodd" stroke="none" />
      </g>
    </g>
  </g>
</svg>